<svg version="1.1" xmlns="http://www.w3.org/2000/svg" xmlns:xlink="http://www.w3.org/1999/xlink" width="800px" height="800px" viewBox="0,0,256,256"><g fill-opacity="0" fill="#000000" fill-rule="nonzero" stroke="none" stroke-width="1" stroke-linecap="butt" stroke-linejoin="miter" stroke-miterlimit="10" stroke-dasharray="" stroke-dashoffset="0" font-family="none" font-weight="none" font-size="none" text-anchor="none" style="mix-blend-mode: normal"><g transform="translate(0,-0.00035) scale(0.55682,0.55682)"><g><path d="M447.652,304.13h-40.138c-6.681,0 -12.097,5.416 -12.097,12.097v95.805c0,6.681 5.416,12.098 12.097,12.098h40.138c6.681,0 12.098,-5.416 12.098,-12.098v-95.805c0,-6.681 -5.416,-12.097 -12.098,-12.097z"></path><path d="M348.798,258.13h-40.138c-6.681,0 -12.098,5.416 -12.098,12.097v141.805c0,6.681 5.416,12.098 12.098,12.098h40.138c6.681,0 12.097,-5.416 12.097,-12.098v-141.804c0.001,-6.682 -5.415,-12.098 -12.097,-12.098z"></path><path d="M151.09,304.13h-40.138c-6.681,0 -12.097,5.416 -12.097,12.097v95.805c0,6.681 5.416,12.098 12.097,12.098h40.138c6.681,0 12.098,-5.416 12.098,-12.098v-95.805c0,-6.681 -5.417,-12.097 -12.098,-12.097z"></path><path d="M52.236,258.13h-40.138c-6.682,0 -12.098,5.416 -12.098,12.098v141.805c0,6.681 5.416,12.098 12.098,12.098h40.138c6.681,0 12.097,-5.416 12.097,-12.098v-141.805c0,-6.682 -5.416,-12.098 -12.097,-12.098z"></path><path d="M249.944,196.968h-40.138c-6.681,0 -12.098,5.416 -12.098,12.098v202.967c0,6.681 5.416,12.098 12.098,12.098h40.138c6.681,0 12.098,-5.416 12.098,-12.098v-202.967c0,-6.682 -5.417,-12.098 -12.098,-12.098z"></path><path d="M436.869,244.62c8.14,0 15,-6.633 15,-15v-48.479c0,-8.284 -6.716,-15 -15,-15c-8.284,0 -15,6.716 -15,15v12.119l-152.349,-153.216c-3.148,-3.165 -7.536,-4.767 -11.989,-4.362c-4.446,0.403 -8.482,2.765 -11.011,6.445l-114.775,167.058l-100.803,-64.216c-6.987,-4.451 -16.26,-2.396 -20.71,4.592c-4.451,6.987 -2.396,16.259 4.592,20.71l113.021,72c2.495,1.589 5.286,2.351 8.046,2.351c4.783,0 9.475,-2.285 12.376,-6.507l112.736,-164.09l139.797,140.595h-12.41c-8.284,0 -15,6.716 -15,15c0,8.284 6.716,15 15,15c6.71,0 41.649,0 48.443,0z"></path></g></g></g></svg>